<?xml version="1.0" encoding="UTF-8" standalone="no"?><svg xmlns="http://www.w3.org/2000/svg" xmlns:xlink="http://www.w3.org/1999/xlink" clip-rule="evenodd" stroke-miterlimit="10" viewBox="0 0 1920 1080"><desc>SVG generated by Keynote</desc><defs></defs><g transform="matrix(1.00, 0.00, -0.00, -1.00, 0.0, 1080.0)"><path d="M 0.0 1080.0 L 1920.0 1080.0 L 1920.0 0.0 L 0.0 0.0 Z M 0.0 1080.0 " fill="#FEFFFF"></path><g><clipPath id="clip0x6000020a15c0"><path d="M 18.0 12.0 L 1904.5 12.0 L 1904.5 33.0 L 18.0 33.0 Z M 18.0 12.0 "></path></clipPath><g clip-path="url(#clip0x6000020a15c0)"><path d="M 18.0 33.0 L 340.2 33.0 L 340.2 12.0 L 18.0 12.0 Z M 18.0 33.0 " fill="#E77A23"></path><path d="M 1582.3 33.0 L 1904.5 33.0 L 1904.5 12.0 L 1582.3 12.0 Z M 1582.3 33.0 " fill="#2C6155"></path><path d="M 403.3 33.0 L 725.5 33.0 L 725.5 12.0 L 403.3 12.0 Z M 403.3 33.0 " fill="#B2802B"></path><path d="M 799.1 33.0 L 1121.3 33.0 L 1121.3 12.0 L 799.1 12.0 Z M 799.1 33.0 " fill="#978B33"></path><path d="M 1190.7 33.0 L 1512.9 33.0 L 1512.9 12.0 L 1190.7 12.0 Z M 1190.7 33.0 " fill="#6A9255"></path></g></g><g><clipPath id="clip0x6000020a1d40"><path d="M 11.7 992.0 L 450.1 992.0 L 450.1 1066.0 L 11.7 1066.0 Z M 11.7 992.0 "></path></clipPath><g clip-path="url(#clip0x6000020a1d40)"><path d="M 11.7 1066.0 L 450.1 1066.0 L 450.1 992.0 L 11.7 992.0 Z M 11.7 1066.0 " fill="#FEFFFF" fill-opacity="0.00"></path></g></g><g><clipPath id="clip0x6000020a1f80"><path d="M 12.3 1064.9 L 450.0 1064.9 L 450.0 993.0 L 12.3 993.0 Z M 12.3 1064.9 "></path></clipPath><g clip-path="url(#clip0x6000020a1f80)"><g><clipPath id="clip0x6000020a2100"><path d="M 12.3 993.0 L 450.0 993.0 L 450.0 1064.9 L 12.3 1064.9 Z M 12.3 993.0 "></path></clipPath><g clip-path="url(#clip0x6000020a2100)"><image xlink:href="../../34155C99-22B4-49EF-8E95-5A8B24FC834B/assets/946E52795DD062AC35535FB421561896.png" width="432.00" height="71.00" transform="matrix(1.01, 0.00, -0.00, -1.01, 12.3, 1064.9)"></image></g></g></g></g><g><clipPath id="clip0x608001ea2760"><path d="M 291.0 984.0 L 1629.0 984.0 L 1629.0 339.0 L 291.0 339.0 Z M 290.9 983.8 "></path></clipPath><g clip-path="url(#clip0x608001ea2760)"><image xlink:href="A232D82ACADD343D30BB3CF9828AC229.png" width="330.00" height="248.00" transform="matrix(4.06, 0.00, -0.00, -4.06, 290.9, 983.0)"></image></g></g><text xml:space="preserve" font-family="Helvetica-Light,Helvetica" font-size="112.0" fill="#000000" transform="matrix(1.00, 0.00, -0.00, -1.00, 810.6, 207.8)">D</text><text xml:space="preserve" font-family="Helvetica-Light,Helvetica" font-size="112.0" fill="#000000" transform="matrix(1.00, 0.00, -0.00, -1.00, 891.5, 207.8)">e</text><text xml:space="preserve" font-family="Helvetica-Light,Helvetica" font-size="112.0" fill="#000000" transform="matrix(1.00, 0.00, -0.00, -1.00, 953.8, 207.8)">m</text><text xml:space="preserve" font-family="Helvetica-Light,Helvetica" font-size="112.0" fill="#000000" transform="matrix(1.00, 0.00, -0.00, -1.00, 1047.1, 207.8)">o</text><text xml:space="preserve" font-family="Helvetica-Light,Helvetica" font-size="44.0" fill="#000000" transform="matrix(1.00, 0.00, -0.00, -1.00, 676.9, 126.1)">C</text><text xml:space="preserve" font-family="Helvetica-Light,Helvetica" font-size="44.0" fill="#000000" transform="matrix(1.00, 0.00, -0.00, -1.00, 708.7, 126.1)">h</text><text xml:space="preserve" font-family="Helvetica-Light,Helvetica" font-size="44.0" fill="#000000" transform="matrix(1.00, 0.00, -0.00, -1.00, 733.2, 126.1)">a</text><text xml:space="preserve" font-family="Helvetica-Light,Helvetica" font-size="44.0" fill="#000000" transform="matrix(1.00, 0.00, -0.00, -1.00, 757.6, 126.1)">t</text><text xml:space="preserve" font-family="Helvetica-Light,Helvetica" font-size="44.0" fill="#000000" transform="matrix(1.00, 0.00, -0.00, -1.00, 769.9, 126.1)">t</text><text xml:space="preserve" font-family="Helvetica-Light,Helvetica" font-size="44.0" fill="#000000" transform="matrix(1.00, 0.00, -0.00, -1.00, 782.1, 126.1)">i</text><text xml:space="preserve" font-family="Helvetica-Light,Helvetica" font-size="44.0" fill="#000000" transform="matrix(1.00, 0.00, -0.00, -1.00, 791.9, 126.1)">n</text><text xml:space="preserve" font-family="Helvetica-Light,Helvetica" font-size="44.0" fill="#000000" transform="matrix(1.00, 0.00, -0.00, -1.00, 816.3, 126.1)">g</text><text xml:space="preserve" font-family="Helvetica-Light,Helvetica" font-size="44.0" fill="#000000" transform="matrix(1.00, 0.00, -0.00, -1.00, 843.2, 126.1)"> </text><text xml:space="preserve" font-family="Helvetica-Light,Helvetica" font-size="44.0" fill="#000000" transform="matrix(1.00, 0.00, -0.00, -1.00, 855.4, 126.1)">C</text><text xml:space="preserve" font-family="Helvetica-Light,Helvetica" font-size="44.0" fill="#000000" transform="matrix(1.00, 0.00, -0.00, -1.00, 887.2, 126.1)">h</text><text xml:space="preserve" font-family="Helvetica-Light,Helvetica" font-size="44.0" fill="#000000" transform="matrix(1.00, 0.00, -0.00, -1.00, 911.7, 126.1)">a</text><text xml:space="preserve" font-family="Helvetica-Light,Helvetica" font-size="44.0" fill="#000000" transform="matrix(1.00, 0.00, -0.00, -1.00, 936.1, 126.1)">t</text><text xml:space="preserve" font-family="Helvetica-Light,Helvetica" font-size="44.0" fill="#000000" transform="matrix(1.00, 0.00, -0.00, -1.00, 948.4, 126.1)">s</text><text xml:space="preserve" font-family="Helvetica-Light,Helvetica" font-size="44.0" fill="#000000" transform="matrix(1.00, 0.00, -0.00, -1.00, 970.4, 126.1)">^</text><text xml:space="preserve" font-family="Helvetica-Light,Helvetica" font-size="44.0" fill="#000000" transform="matrix(1.00, 0.00, -0.00, -1.00, 999.4, 126.1)">h</text><text xml:space="preserve" font-family="Helvetica-Light,Helvetica" font-size="44.0" fill="#000000" transform="matrix(1.00, 0.00, -0.00, -1.00, 1023.9, 126.1)">^</text><text xml:space="preserve" font-family="Helvetica-Light,Helvetica" font-size="44.0" fill="#000000" transform="matrix(1.00, 0.00, -0.00, -1.00, 1052.9, 126.1)">h</text><text xml:space="preserve" font-family="Helvetica-Light,Helvetica" font-size="44.0" fill="#000000" transform="matrix(1.00, 0.00, -0.00, -1.00, 1077.4, 126.1)">^</text><text xml:space="preserve" font-family="Helvetica-Light,Helvetica" font-size="44.0" fill="#000000" transform="matrix(1.00, 0.00, -0.00, -1.00, 1106.4, 126.1)">h</text><text xml:space="preserve" font-family="Helvetica-Light,Helvetica" font-size="44.0" fill="#000000" transform="matrix(1.00, 0.00, -0.00, -1.00, 1130.9, 126.1)">^</text><text xml:space="preserve" font-family="Helvetica-Light,Helvetica" font-size="44.0" fill="#000000" transform="matrix(1.00, 0.00, -0.00, -1.00, 1159.9, 126.1)">h</text><text xml:space="preserve" font-family="Helvetica-Light,Helvetica" font-size="44.0" fill="#000000" transform="matrix(1.00, 0.00, -0.00, -1.00, 1184.4, 126.1)">a</text><text xml:space="preserve" font-family="Helvetica-Light,Helvetica" font-size="44.0" fill="#000000" transform="matrix(1.00, 0.00, -0.00, -1.00, 1208.8, 126.1)">t</text><text xml:space="preserve" font-family="Helvetica-Light,Helvetica" font-size="44.0" fill="#000000" transform="matrix(1.00, 0.00, -0.00, -1.00, 1221.1, 126.1)">s</text></g></svg>