<?xml version="1.0" encoding="UTF-8" standalone="no"?><svg xmlns="http://www.w3.org/2000/svg" xmlns:xlink="http://www.w3.org/1999/xlink" clip-rule="evenodd" stroke-miterlimit="10" viewBox="0 0 1920 1080"><desc>SVG generated by Keynote</desc><defs></defs><g transform="matrix(1.00, 0.00, -0.00, -1.00, 0.0, 1080.0)"><path d="M 0.0 1080.0 L 1920.0 1080.0 L 1920.0 0.0 L 0.0 0.0 Z M 0.0 1080.0 " fill="#FEFFFE"></path><g><clipPath id="clip0x608000ebd640"><path d="M 18.0 12.0 L 1904.5 12.0 L 1904.5 33.0 L 18.0 33.0 Z M 18.0 12.0 "></path></clipPath><g clip-path="url(#clip0x608000ebd640)"><path d="M 18.0 33.0 L 340.2 33.0 L 340.2 12.0 L 18.0 12.0 Z M 18.0 33.0 " fill="#E77A23"></path><path d="M 1582.3 33.0 L 1904.5 33.0 L 1904.5 12.0 L 1582.3 12.0 Z M 1582.3 33.0 " fill="#2C6155"></path><path d="M 403.3 33.0 L 725.5 33.0 L 725.5 12.0 L 403.3 12.0 Z M 403.3 33.0 " fill="#B2802B"></path><path d="M 799.1 33.0 L 1121.3 33.0 L 1121.3 12.0 L 799.1 12.0 Z M 799.1 33.0 " fill="#978B33"></path><path d="M 1190.7 33.0 L 1512.9 33.0 L 1512.9 12.0 L 1190.7 12.0 Z M 1190.7 33.0 " fill="#6A9255"></path></g></g><g><clipPath id="clip0x608000ebd9a0"><path d="M 11.7 992.0 L 450.1 992.0 L 450.1 1066.0 L 11.7 1066.0 Z M 11.7 992.0 "></path></clipPath><g clip-path="url(#clip0x608000ebd9a0)"><path d="M 11.7 1066.0 L 450.1 1066.0 L 450.1 992.0 L 11.7 992.0 Z M 11.7 1066.0 " fill="#FEFFFF" fill-opacity="0.00"></path></g></g><g><clipPath id="clip0x608000ebdbe0"><path d="M 12.3 1064.9 L 450.0 1064.9 L 450.0 993.0 L 12.3 993.0 Z M 12.3 1064.9 "></path></clipPath><g clip-path="url(#clip0x608000ebdbe0)"><g><clipPath id="clip0x608000ebdd60"><path d="M 12.3 993.0 L 450.0 993.0 L 450.0 1064.9 L 12.3 1064.9 Z M 12.3 993.0 "></path></clipPath><g clip-path="url(#clip0x608000ebdd60)"><image xlink:href="../../34155C99-22B4-49EF-8E95-5A8B24FC834B/assets/946E52795DD062AC35535FB421561896.png" width="432.00" height="71.00" transform="matrix(1.01, 0.00, -0.00, -1.01, 12.3, 1064.9)"></image></g></g></g></g><g><clipPath id="clip0x608000ebddc0"><path d="M 670.0 962.0 L 1976.0 962.0 L 1976.0 80.0 L 670.0 80.0 Z M 670.2 961.6 "></path></clipPath><g clip-path="url(#clip0x608000ebddc0)"><image xlink:href="../../0DEB92BA-6A75-469E-B2B7-909969143781/assets/37A0B09F0FF3C7453A0F05D14B647D1D.png" width="800.00" height="552.00" transform="matrix(1.60, 0.00, -0.00, -1.60, 684.5, 961.6)"></image></g></g><text xml:space="preserve" font-family="Helvetica-Light,Helvetica" font-size="112.0" fill="#000000" transform="matrix(1.00, 0.00, -0.00, -1.00, 137.0, 873.8)"> </text><text xml:space="preserve" font-family="Helvetica-Light,Helvetica" font-size="112.0" fill="#000000" transform="matrix(1.00, 0.00, -0.00, -1.00, 168.1, 873.8)"> </text><text xml:space="preserve" font-family="Helvetica-Light,Helvetica" font-size="112.0" fill="#000000" transform="matrix(1.00, 0.00, -0.00, -1.00, 199.3, 873.8)"> </text><text xml:space="preserve" font-family="Helvetica-Light,Helvetica" font-size="112.0" fill="#000000" transform="matrix(1.00, 0.00, -0.00, -1.00, 230.4, 873.8)"> </text><text xml:space="preserve" font-family="Helvetica-Light,Helvetica" font-size="112.0" fill="#000000" transform="matrix(1.00, 0.00, -0.00, -1.00, 261.5, 873.8)"> </text><text xml:space="preserve" font-family="Helvetica-Light,Helvetica" font-size="112.0" fill="#000000" transform="matrix(1.00, 0.00, -0.00, -1.00, 292.7, 873.8)">W</text><text xml:space="preserve" font-family="Helvetica-Light,Helvetica" font-size="112.0" fill="#000000" transform="matrix(1.00, 0.00, -0.00, -1.00, 392.2, 873.8)">h</text><text xml:space="preserve" font-family="Helvetica-Light,Helvetica" font-size="112.0" fill="#000000" transform="matrix(1.00, 0.00, -0.00, -1.00, 454.5, 873.8)">a</text><text xml:space="preserve" font-family="Helvetica-Light,Helvetica" font-size="112.0" fill="#000000" transform="matrix(1.00, 0.00, -0.00, -1.00, 516.8, 873.8)">t</text><text xml:space="preserve" font-family="Helvetica-Light,Helvetica" font-size="112.0" fill="#000000" transform="matrix(1.00, 0.00, -0.00, -1.00, 547.9, 873.8)"> </text><text xml:space="preserve" font-family="Helvetica-Light,Helvetica" font-size="112.0" fill="#000000" transform="matrix(1.00, 0.00, -0.00, -1.00, 579.1, 873.8)">i</text><text xml:space="preserve" font-family="Helvetica-Light,Helvetica" font-size="112.0" fill="#000000" transform="matrix(1.00, 0.00, -0.00, -1.00, 603.9, 873.8)">s</text><text xml:space="preserve" font-family="Helvetica-Light,Helvetica" font-size="112.0" fill="#000000" transform="matrix(1.00, 0.00, -0.00, -1.00, 659.9, 873.8)"> </text><text xml:space="preserve" font-family="Helvetica-Light,Helvetica" font-size="112.0" fill="#000000" transform="matrix(1.00, 0.00, -0.00, -1.00, 691.1, 873.8)"> </text><text xml:space="preserve" font-family="Helvetica-Light,Helvetica" font-size="112.0" fill="#000000" transform="matrix(1.00, 0.00, -0.00, -1.00, 722.2, 873.8)"> </text><text xml:space="preserve" font-family="Helvetica-Light,Helvetica" font-size="112.0" fill="#000000" transform="matrix(1.00, 0.00, -0.00, -1.00, 753.3, 873.8)"> </text><text xml:space="preserve" font-family="Helvetica-Light,Helvetica" font-size="112.0" fill="#000000" transform="matrix(1.00, 0.00, -0.00, -1.00, 784.5, 873.8)"> </text><text xml:space="preserve" font-family="Helvetica-Light,Helvetica" font-size="112.0" fill="#000000" transform="matrix(1.00, 0.00, -0.00, -1.00, 815.6, 873.8)"> </text><text xml:space="preserve" font-family="Helvetica-Light,Helvetica" font-size="112.0" fill="#000000" transform="matrix(1.00, 0.00, -0.00, -1.00, 846.7, 873.8)"> </text><text xml:space="preserve" font-family="Helvetica-Light,Helvetica" font-size="112.0" fill="#000000" transform="matrix(1.00, 0.00, -0.00, -1.00, 877.9, 873.8)"> </text><text xml:space="preserve" font-family="Helvetica-Light,Helvetica" font-size="112.0" fill="#000000" transform="matrix(1.00, 0.00, -0.00, -1.00, 909.0, 873.8)"> </text><text xml:space="preserve" font-family="Helvetica-Light,Helvetica" font-size="112.0" fill="#000000" transform="matrix(1.00, 0.00, -0.00, -1.00, 940.2, 873.8)"> </text><text xml:space="preserve" font-family="Helvetica-Light,Helvetica" font-size="112.0" fill="#000000" transform="matrix(1.00, 0.00, -0.00, -1.00, 971.3, 873.8)"> </text><text xml:space="preserve" font-family="Helvetica-Light,Helvetica" font-size="112.0" fill="#000000" transform="matrix(1.00, 0.00, -0.00, -1.00, 1002.4, 873.8)">?</text><text xml:space="preserve" font-family="Helvetica-Light,Helvetica" font-size="33.8" fill="#000000" transform="matrix(1.00, 0.00, -0.00, -1.00, 137.0, 781.3)">•</text><text xml:space="preserve" font-family="Helvetica-Light,Helvetica" font-size="45.0" fill="#000000" transform="matrix(1.00, 0.00, -0.00, -1.00, 181.0, 777.3)">I</text><text xml:space="preserve" font-family="Helvetica-Light,Helvetica" font-size="45.0" fill="#000000" transform="matrix(1.00, 0.00, -0.00, -1.00, 193.5, 777.3)">t</text><text xml:space="preserve" font-family="Helvetica-Light,Helvetica" font-size="45.0" fill="#000000" transform="matrix(1.00, 0.00, -0.00, -1.00, 206.0, 777.3)">’</text><text xml:space="preserve" font-family="Helvetica-Light,Helvetica" font-size="45.0" fill="#000000" transform="matrix(1.00, 0.00, -0.00, -1.00, 212.7, 777.3)">s</text><text xml:space="preserve" font-family="Helvetica-Light,Helvetica" font-size="45.0" fill="#000000" transform="matrix(1.00, 0.00, -0.00, -1.00, 235.2, 777.3)"> </text><text xml:space="preserve" font-family="Helvetica-Light,Helvetica" font-size="45.0" fill="#000000" transform="matrix(1.00, 0.00, -0.00, -1.00, 247.7, 777.3)">a</text><text xml:space="preserve" font-family="Helvetica-Light,Helvetica" font-size="45.0" fill="#000000" transform="matrix(1.00, 0.00, -0.00, -1.00, 272.7, 777.3)"> </text><text xml:space="preserve" font-family="Helvetica-Light,Helvetica" font-size="45.0" fill="#000000" transform="matrix(1.00, 0.00, -0.00, -1.00, 285.2, 777.3)">b</text><text xml:space="preserve" font-family="Helvetica-Light,Helvetica" font-size="45.0" fill="#000000" transform="matrix(1.00, 0.00, -0.00, -1.00, 312.7, 777.3)">u</text><text xml:space="preserve" font-family="Helvetica-Light,Helvetica" font-size="45.0" fill="#000000" transform="matrix(1.00, 0.00, -0.00, -1.00, 337.7, 777.3)">n</text><text xml:space="preserve" font-family="Helvetica-Light,Helvetica" font-size="45.0" fill="#000000" transform="matrix(1.00, 0.00, -0.00, -1.00, 362.8, 777.3)">c</text><text xml:space="preserve" font-family="Helvetica-Light,Helvetica" font-size="45.0" fill="#000000" transform="matrix(1.00, 0.00, -0.00, -1.00, 387.8, 777.3)">h</text><text xml:space="preserve" font-family="Helvetica-Light,Helvetica" font-size="45.0" fill="#000000" transform="matrix(1.00, 0.00, -0.00, -1.00, 412.8, 777.3)"> </text><text xml:space="preserve" font-family="Helvetica-Light,Helvetica" font-size="45.0" fill="#000000" transform="matrix(1.00, 0.00, -0.00, -1.00, 425.3, 777.3)">o</text><text xml:space="preserve" font-family="Helvetica-Light,Helvetica" font-size="45.0" fill="#000000" transform="matrix(1.00, 0.00, -0.00, -1.00, 450.3, 777.3)">f</text><text xml:space="preserve" font-family="Helvetica-Light,Helvetica" font-size="45.0" fill="#000000" transform="matrix(1.00, 0.00, -0.00, -1.00, 462.8, 777.3)"> </text><text xml:space="preserve" font-family="Helvetica-Light,Helvetica" font-size="45.0" fill="#000000" transform="matrix(1.00, 0.00, -0.00, -1.00, 181.0, 723.3)">c</text><text xml:space="preserve" font-family="Helvetica-Light,Helvetica" font-size="45.0" fill="#000000" transform="matrix(1.00, 0.00, -0.00, -1.00, 206.0, 723.3)">o</text><text xml:space="preserve" font-family="Helvetica-Light,Helvetica" font-size="45.0" fill="#000000" transform="matrix(1.00, 0.00, -0.00, -1.00, 231.0, 723.3)">n</text><text xml:space="preserve" font-family="Helvetica-Light,Helvetica" font-size="45.0" fill="#000000" transform="matrix(1.00, 0.00, -0.00, -1.00, 256.1, 723.3)">s</text><text xml:space="preserve" font-family="Helvetica-Light,Helvetica" font-size="45.0" fill="#000000" transform="matrix(1.00, 0.00, -0.00, -1.00, 278.6, 723.3)">t</text><text xml:space="preserve" font-family="Helvetica-Light,Helvetica" font-size="45.0" fill="#000000" transform="matrix(1.00, 0.00, -0.00, -1.00, 291.1, 723.3)">a</text><text xml:space="preserve" font-family="Helvetica-Light,Helvetica" font-size="45.0" fill="#000000" transform="matrix(1.00, 0.00, -0.00, -1.00, 316.1, 723.3)">n</text><text xml:space="preserve" font-family="Helvetica-Light,Helvetica" font-size="45.0" fill="#000000" transform="matrix(1.00, 0.00, -0.00, -1.00, 341.1, 723.3)">t</text><text xml:space="preserve" font-family="Helvetica-Light,Helvetica" font-size="45.0" fill="#000000" transform="matrix(1.00, 0.00, -0.00, -1.00, 353.6, 723.3)">l</text><text xml:space="preserve" font-family="Helvetica-Light,Helvetica" font-size="45.0" fill="#000000" transform="matrix(1.00, 0.00, -0.00, -1.00, 363.6, 723.3)">y</text><text xml:space="preserve" font-family="Helvetica-Light,Helvetica" font-size="45.0" fill="#000000" transform="matrix(1.00, 0.00, -0.00, -1.00, 386.1, 723.3)"> </text><text xml:space="preserve" font-family="Helvetica-Light,Helvetica" font-size="45.0" fill="#000000" transform="matrix(1.00, 0.00, -0.00, -1.00, 398.6, 723.3)">e</text><text xml:space="preserve" font-family="Helvetica-Light,Helvetica" font-size="45.0" fill="#000000" transform="matrix(1.00, 0.00, -0.00, -1.00, 423.6, 723.3)">v</text><text xml:space="preserve" font-family="Helvetica-Light,Helvetica" font-size="45.0" fill="#000000" transform="matrix(1.00, 0.00, -0.00, -1.00, 446.1, 723.3)">o</text><text xml:space="preserve" font-family="Helvetica-Light,Helvetica" font-size="45.0" fill="#000000" transform="matrix(1.00, 0.00, -0.00, -1.00, 471.2, 723.3)">l</text><text xml:space="preserve" font-family="Helvetica-Light,Helvetica" font-size="45.0" fill="#000000" transform="matrix(1.00, 0.00, -0.00, -1.00, 481.1, 723.3)">v</text><text xml:space="preserve" font-family="Helvetica-Light,Helvetica" font-size="45.0" fill="#000000" transform="matrix(1.00, 0.00, -0.00, -1.00, 503.6, 723.3)">i</text><text xml:space="preserve" font-family="Helvetica-Light,Helvetica" font-size="45.0" fill="#000000" transform="matrix(1.00, 0.00, -0.00, -1.00, 513.6, 723.3)">n</text><text xml:space="preserve" font-family="Helvetica-Light,Helvetica" font-size="45.0" fill="#000000" transform="matrix(1.00, 0.00, -0.00, -1.00, 538.7, 723.3)">g</text><text xml:space="preserve" font-family="Helvetica-Light,Helvetica" font-size="45.0" fill="#000000" transform="matrix(1.00, 0.00, -0.00, -1.00, 566.2, 723.3)"> </text><text xml:space="preserve" font-family="Helvetica-Light,Helvetica" font-size="45.0" fill="#000000" transform="matrix(1.00, 0.00, -0.00, -1.00, 578.7, 723.3)">l</text><text xml:space="preserve" font-family="Helvetica-Light,Helvetica" font-size="45.0" fill="#000000" transform="matrix(1.00, 0.00, -0.00, -1.00, 588.7, 723.3)">i</text><text xml:space="preserve" font-family="Helvetica-Light,Helvetica" font-size="45.0" fill="#000000" transform="matrix(1.00, 0.00, -0.00, -1.00, 598.6, 723.3)">t</text><text xml:space="preserve" font-family="Helvetica-Light,Helvetica" font-size="45.0" fill="#000000" transform="matrix(1.00, 0.00, -0.00, -1.00, 611.2, 723.3)">t</text><text xml:space="preserve" font-family="Helvetica-Light,Helvetica" font-size="45.0" fill="#000000" transform="matrix(1.00, 0.00, -0.00, -1.00, 623.7, 723.3)">l</text><text xml:space="preserve" font-family="Helvetica-Light,Helvetica" font-size="45.0" fill="#000000" transform="matrix(1.00, 0.00, -0.00, -1.00, 633.7, 723.3)">e</text><text xml:space="preserve" font-family="Helvetica-Light,Helvetica" font-size="45.0" fill="#000000" transform="matrix(1.00, 0.00, -0.00, -1.00, 658.7, 723.3)"> </text><text xml:space="preserve" font-family="Helvetica-Light,Helvetica" font-size="45.0" fill="#000000" transform="matrix(1.00, 0.00, -0.00, -1.00, 181.0, 669.3)">f</text><text xml:space="preserve" font-family="Helvetica-Light,Helvetica" font-size="45.0" fill="#000000" transform="matrix(1.00, 0.00, -0.00, -1.00, 193.5, 669.3)">e</text><text xml:space="preserve" font-family="Helvetica-Light,Helvetica" font-size="45.0" fill="#000000" transform="matrix(1.00, 0.00, -0.00, -1.00, 218.5, 669.3)">a</text><text xml:space="preserve" font-family="Helvetica-Light,Helvetica" font-size="45.0" fill="#000000" transform="matrix(1.00, 0.00, -0.00, -1.00, 243.6, 669.3)">t</text><text xml:space="preserve" font-family="Helvetica-Light,Helvetica" font-size="45.0" fill="#000000" transform="matrix(1.00, 0.00, -0.00, -1.00, 256.1, 669.3)">u</text><text xml:space="preserve" font-family="Helvetica-Light,Helvetica" font-size="45.0" fill="#000000" transform="matrix(1.00, 0.00, -0.00, -1.00, 281.1, 669.3)">r</text><text xml:space="preserve" font-family="Helvetica-Light,Helvetica" font-size="45.0" fill="#000000" transform="matrix(1.00, 0.00, -0.00, -1.00, 295.3, 669.3)">e</text><text xml:space="preserve" font-family="Helvetica-Light,Helvetica" font-size="45.0" fill="#000000" transform="matrix(1.00, 0.00, -0.00, -1.00, 320.3, 669.3)">s</text><text xml:space="preserve" font-family="Helvetica-Light,Helvetica" font-size="45.0" fill="#000000" transform="matrix(1.00, 0.00, -0.00, -1.00, 342.8, 669.3)"> </text><text xml:space="preserve" font-family="Helvetica-Light,Helvetica" font-size="33.8" fill="#000000" transform="matrix(1.00, 0.00, -0.00, -1.00, 181.0, 574.3)">•</text><text xml:space="preserve" font-family="Helvetica-Light,Helvetica" font-size="45.0" fill="#000000" transform="matrix(1.00, 0.00, -0.00, -1.00, 225.0, 570.3)">I</text><text xml:space="preserve" font-family="Helvetica-Light,Helvetica" font-size="45.0" fill="#000000" transform="matrix(1.00, 0.00, -0.00, -1.00, 237.5, 570.3)">t</text><text xml:space="preserve" font-family="Helvetica-Light,Helvetica" font-size="45.0" fill="#000000" transform="matrix(1.00, 0.00, -0.00, -1.00, 250.0, 570.3)">’</text><text xml:space="preserve" font-family="Helvetica-Light,Helvetica" font-size="45.0" fill="#000000" transform="matrix(1.00, 0.00, -0.00, -1.00, 256.7, 570.3)">s</text><text xml:space="preserve" font-family="Helvetica-Light,Helvetica" font-size="45.0" fill="#000000" transform="matrix(1.00, 0.00, -0.00, -1.00, 279.2, 570.3)"> </text><text xml:space="preserve" font-family="Helvetica-Light,Helvetica" font-size="45.0" fill="#000000" transform="matrix(1.00, 0.00, -0.00, -1.00, 291.7, 570.3)">n</text><text xml:space="preserve" font-family="Helvetica-Light,Helvetica" font-size="45.0" fill="#000000" transform="matrix(1.00, 0.00, -0.00, -1.00, 316.7, 570.3)">o</text><text xml:space="preserve" font-family="Helvetica-Light,Helvetica" font-size="45.0" fill="#000000" transform="matrix(1.00, 0.00, -0.00, -1.00, 341.7, 570.3)">t</text><text xml:space="preserve" font-family="Helvetica-Light,Helvetica" font-size="45.0" fill="#000000" transform="matrix(1.00, 0.00, -0.00, -1.00, 354.2, 570.3)"> </text><text xml:space="preserve" font-family="Helvetica-Light,Helvetica" font-size="45.0" fill="#000000" transform="matrix(1.00, 0.00, -0.00, -1.00, 366.8, 570.3)">d</text><text xml:space="preserve" font-family="Helvetica-Light,Helvetica" font-size="45.0" fill="#000000" transform="matrix(1.00, 0.00, -0.00, -1.00, 394.2, 570.3)">o</text><text xml:space="preserve" font-family="Helvetica-Light,Helvetica" font-size="45.0" fill="#000000" transform="matrix(1.00, 0.00, -0.00, -1.00, 419.3, 570.3)">n</text><text xml:space="preserve" font-family="Helvetica-Light,Helvetica" font-size="45.0" fill="#000000" transform="matrix(1.00, 0.00, -0.00, -1.00, 444.3, 570.3)">e</text><text xml:space="preserve" font-family="Helvetica-Light,Helvetica" font-size="45.0" fill="#000000" transform="matrix(1.00, 0.00, -0.00, -1.00, 469.3, 570.3)"> </text><text xml:space="preserve" font-family="Helvetica-Light,Helvetica" font-size="45.0" fill="#000000" transform="matrix(1.00, 0.00, -0.00, -1.00, 481.8, 570.3)">y</text><text xml:space="preserve" font-family="Helvetica-Light,Helvetica" font-size="45.0" fill="#000000" transform="matrix(1.00, 0.00, -0.00, -1.00, 504.3, 570.3)">e</text><text xml:space="preserve" font-family="Helvetica-Light,Helvetica" font-size="45.0" fill="#000000" transform="matrix(1.00, 0.00, -0.00, -1.00, 529.3, 570.3)">t</text><text xml:space="preserve" font-family="Helvetica-Light,Helvetica" font-size="45.0" fill="#000000" transform="matrix(1.00, 0.00, -0.00, -1.00, 541.8, 570.3)">!</text><text xml:space="preserve" font-family="Helvetica-Light,Helvetica" font-size="45.0" fill="#000000" transform="matrix(1.00, 0.00, -0.00, -1.00, 556.8, 570.3)"> </text><text xml:space="preserve" font-family="Helvetica-Light,Helvetica" font-size="33.8" fill="#000000" transform="matrix(1.00, 0.00, -0.00, -1.00, 137.0, 475.3)">•</text><text xml:space="preserve" font-family="Helvetica-Light,Helvetica" font-size="45.0" fill="#000000" transform="matrix(1.00, 0.00, -0.00, -1.00, 181.0, 471.3)">M</text><text xml:space="preserve" font-family="Helvetica-Light,Helvetica" font-size="45.0" fill="#000000" transform="matrix(1.00, 0.00, -0.00, -1.00, 218.5, 471.3)">e</text><text xml:space="preserve" font-family="Helvetica-Light,Helvetica" font-size="45.0" fill="#000000" transform="matrix(1.00, 0.00, -0.00, -1.00, 243.5, 471.3)">a</text><text xml:space="preserve" font-family="Helvetica-Light,Helvetica" font-size="45.0" fill="#000000" transform="matrix(1.00, 0.00, -0.00, -1.00, 268.5, 471.3)">n</text><text xml:space="preserve" font-family="Helvetica-Light,Helvetica" font-size="45.0" fill="#000000" transform="matrix(1.00, 0.00, -0.00, -1.00, 293.5, 471.3)">s</text><text xml:space="preserve" font-family="Helvetica-Light,Helvetica" font-size="45.0" fill="#000000" transform="matrix(1.00, 0.00, -0.00, -1.00, 316.0, 471.3)"> </text><text xml:space="preserve" font-family="Helvetica-Light,Helvetica" font-size="45.0" fill="#000000" transform="matrix(1.00, 0.00, -0.00, -1.00, 328.6, 471.3)">d</text><text xml:space="preserve" font-family="Helvetica-Light,Helvetica" font-size="45.0" fill="#000000" transform="matrix(1.00, 0.00, -0.00, -1.00, 356.1, 471.3)">i</text><text xml:space="preserve" font-family="Helvetica-Light,Helvetica" font-size="45.0" fill="#000000" transform="matrix(1.00, 0.00, -0.00, -1.00, 366.0, 471.3)">f</text><text xml:space="preserve" font-family="Helvetica-Light,Helvetica" font-size="45.0" fill="#000000" transform="matrix(1.00, 0.00, -0.00, -1.00, 377.7, 471.3)">f</text><text xml:space="preserve" font-family="Helvetica-Light,Helvetica" font-size="45.0" fill="#000000" transform="matrix(1.00, 0.00, -0.00, -1.00, 390.2, 471.3)">e</text><text xml:space="preserve" font-family="Helvetica-Light,Helvetica" font-size="45.0" fill="#000000" transform="matrix(1.00, 0.00, -0.00, -1.00, 415.3, 471.3)">r</text><text xml:space="preserve" font-family="Helvetica-Light,Helvetica" font-size="45.0" fill="#000000" transform="matrix(1.00, 0.00, -0.00, -1.00, 429.4, 471.3)">e</text><text xml:space="preserve" font-family="Helvetica-Light,Helvetica" font-size="45.0" fill="#000000" transform="matrix(1.00, 0.00, -0.00, -1.00, 454.5, 471.3)">n</text><text xml:space="preserve" font-family="Helvetica-Light,Helvetica" font-size="45.0" fill="#000000" transform="matrix(1.00, 0.00, -0.00, -1.00, 479.5, 471.3)">t</text><text xml:space="preserve" font-family="Helvetica-Light,Helvetica" font-size="45.0" fill="#000000" transform="matrix(1.00, 0.00, -0.00, -1.00, 492.0, 471.3)"> </text><text xml:space="preserve" font-family="Helvetica-Light,Helvetica" font-size="45.0" fill="#000000" transform="matrix(1.00, 0.00, -0.00, -1.00, 504.5, 471.3)">t</text><text xml:space="preserve" font-family="Helvetica-Light,Helvetica" font-size="45.0" fill="#000000" transform="matrix(1.00, 0.00, -0.00, -1.00, 517.0, 471.3)">h</text><text xml:space="preserve" font-family="Helvetica-Light,Helvetica" font-size="45.0" fill="#000000" transform="matrix(1.00, 0.00, -0.00, -1.00, 542.0, 471.3)">i</text><text xml:space="preserve" font-family="Helvetica-Light,Helvetica" font-size="45.0" fill="#000000" transform="matrix(1.00, 0.00, -0.00, -1.00, 552.0, 471.3)">n</text><text xml:space="preserve" font-family="Helvetica-Light,Helvetica" font-size="45.0" fill="#000000" transform="matrix(1.00, 0.00, -0.00, -1.00, 577.0, 471.3)">g</text><text xml:space="preserve" font-family="Helvetica-Light,Helvetica" font-size="45.0" fill="#000000" transform="matrix(1.00, 0.00, -0.00, -1.00, 604.5, 471.3)">s</text><text xml:space="preserve" font-family="Helvetica-Light,Helvetica" font-size="45.0" fill="#000000" transform="matrix(1.00, 0.00, -0.00, -1.00, 627.0, 471.3)"> </text><text xml:space="preserve" font-family="Helvetica-Light,Helvetica" font-size="45.0" fill="#000000" transform="matrix(1.00, 0.00, -0.00, -1.00, 639.5, 471.3)">t</text><text xml:space="preserve" font-family="Helvetica-Light,Helvetica" font-size="45.0" fill="#000000" transform="matrix(1.00, 0.00, -0.00, -1.00, 652.1, 471.3)">o</text><text xml:space="preserve" font-family="Helvetica-Light,Helvetica" font-size="45.0" fill="#000000" transform="matrix(1.00, 0.00, -0.00, -1.00, 677.1, 471.3)"> </text><text xml:space="preserve" font-family="Helvetica-Light,Helvetica" font-size="45.0" fill="#000000" transform="matrix(1.00, 0.00, -0.00, -1.00, 181.0, 417.3)">d</text><text xml:space="preserve" font-family="Helvetica-Light,Helvetica" font-size="45.0" fill="#000000" transform="matrix(1.00, 0.00, -0.00, -1.00, 208.5, 417.3)">i</text><text xml:space="preserve" font-family="Helvetica-Light,Helvetica" font-size="45.0" fill="#000000" transform="matrix(1.00, 0.00, -0.00, -1.00, 218.5, 417.3)">f</text><text xml:space="preserve" font-family="Helvetica-Light,Helvetica" font-size="45.0" fill="#000000" transform="matrix(1.00, 0.00, -0.00, -1.00, 230.2, 417.3)">f</text><text xml:space="preserve" font-family="Helvetica-Light,Helvetica" font-size="45.0" fill="#000000" transform="matrix(1.00, 0.00, -0.00, -1.00, 242.7, 417.3)">e</text><text xml:space="preserve" font-family="Helvetica-Light,Helvetica" font-size="45.0" fill="#000000" transform="matrix(1.00, 0.00, -0.00, -1.00, 267.7, 417.3)">r</text><text xml:space="preserve" font-family="Helvetica-Light,Helvetica" font-size="45.0" fill="#000000" transform="matrix(1.00, 0.00, -0.00, -1.00, 281.9, 417.3)">e</text><text xml:space="preserve" font-family="Helvetica-Light,Helvetica" font-size="45.0" fill="#000000" transform="matrix(1.00, 0.00, -0.00, -1.00, 306.9, 417.3)">n</text><text xml:space="preserve" font-family="Helvetica-Light,Helvetica" font-size="45.0" fill="#000000" transform="matrix(1.00, 0.00, -0.00, -1.00, 331.9, 417.3)">t</text><text xml:space="preserve" font-family="Helvetica-Light,Helvetica" font-size="45.0" fill="#000000" transform="matrix(1.00, 0.00, -0.00, -1.00, 344.4, 417.3)"> </text><text xml:space="preserve" font-family="Helvetica-Light,Helvetica" font-size="45.0" fill="#000000" transform="matrix(1.00, 0.00, -0.00, -1.00, 356.9, 417.3)">b</text><text xml:space="preserve" font-family="Helvetica-Light,Helvetica" font-size="45.0" fill="#000000" transform="matrix(1.00, 0.00, -0.00, -1.00, 384.4, 417.3)">r</text><text xml:space="preserve" font-family="Helvetica-Light,Helvetica" font-size="45.0" fill="#000000" transform="matrix(1.00, 0.00, -0.00, -1.00, 398.6, 417.3)">o</text><text xml:space="preserve" font-family="Helvetica-Light,Helvetica" font-size="45.0" fill="#000000" transform="matrix(1.00, 0.00, -0.00, -1.00, 423.6, 417.3)">w</text><text xml:space="preserve" font-family="Helvetica-Light,Helvetica" font-size="45.0" fill="#000000" transform="matrix(1.00, 0.00, -0.00, -1.00, 456.1, 417.3)">s</text><text xml:space="preserve" font-family="Helvetica-Light,Helvetica" font-size="45.0" fill="#000000" transform="matrix(1.00, 0.00, -0.00, -1.00, 478.6, 417.3)">e</text><text xml:space="preserve" font-family="Helvetica-Light,Helvetica" font-size="45.0" fill="#000000" transform="matrix(1.00, 0.00, -0.00, -1.00, 503.6, 417.3)">r</text><text xml:space="preserve" font-family="Helvetica-Light,Helvetica" font-size="45.0" fill="#000000" transform="matrix(1.00, 0.00, -0.00, -1.00, 518.6, 417.3)">s</text><image xlink:href="../../0DEB92BA-6A75-469E-B2B7-909969143781/assets/B324F502A92FEE8852702AE6724E6835.png" width="500.00" height="283.00" transform="matrix(1.29, 0.00, -0.00, -1.29, 37.4, 403.9)"></image></g></svg>